<svg width="22" height="22" viewBox="0 0 22 22" fill="none" xmlns="http://www.w3.org/2000/svg">
<path d="M12.2278 8.92245C11.8385 9.08368 11.4213 9.16667 11 9.16667C10.1491 9.16667 9.33305 8.82865 8.73137 8.22697C8.12969 7.62529 7.79167 6.80924 7.79167 5.95833C7.79167 5.10743 8.12969 4.29138 8.73137 3.6897C9.33305 3.08802 10.1491 2.75 11 2.75C11.4213 2.75 11.8385 2.83299 12.2278 2.99422C12.617 3.15545 12.9707 3.39178 13.2686 3.6897C13.5666 3.98762 13.8029 4.3413 13.9641 4.73056C14.1253 5.11981 14.2083 5.53701 14.2083 5.95833C14.2083 6.37966 14.1253 6.79686 13.9641 7.18611C13.8029 7.57536 13.5666 7.92905 13.2686 8.22697C12.9707 8.52489 12.617 8.76121 12.2278 8.92245Z" stroke="#565656" stroke-width="2" stroke-linecap="round" stroke-linejoin="round"/>
<path d="M2.75 19.25V18.7C2.75 16.6467 2.75 15.62 3.14967 14.8353C3.5012 14.1454 4.0621 13.5845 4.752 13.233C5.53666 12.8333 6.56333 12.8333 8.61665 12.8333H8.61667H13.3833H13.3833C15.4367 12.8333 16.4633 12.8333 17.248 13.233C17.9379 13.5845 18.4988 14.1454 18.8503 14.8353C19.25 15.62 19.25 16.6467 19.25 18.7V19.25H2.75Z" stroke="#565656" stroke-width="2" stroke-linecap="round" stroke-linejoin="round"/>
</svg>
