<svg width="22" height="22" viewBox="0 0 22 22" fill="none" xmlns="http://www.w3.org/2000/svg">
<path d="M4.58333 19.25C4.07917 19.25 3.64772 19.0706 3.289 18.7119C2.93028 18.3532 2.75061 17.9214 2.75 17.4167V4.58333C2.75 4.07917 2.92967 3.64772 3.289 3.289C3.64833 2.93028 4.07978 2.75061 4.58333 2.75H10.0833C10.3431 2.75 10.5609 2.838 10.7369 3.014C10.9129 3.19 11.0006 3.40756 11 3.66667C10.9994 3.92578 10.9114 4.14364 10.736 4.32025C10.5606 4.49686 10.3431 4.58456 10.0833 4.58333H4.58333V17.4167H10.0833C10.3431 17.4167 10.5609 17.5047 10.7369 17.6807C10.9129 17.8567 11.0006 18.0742 11 18.3333C10.9994 18.5924 10.9114 18.8103 10.736 18.9869C10.5606 19.1635 10.3431 19.2512 10.0833 19.25H4.58333ZM15.7437 11.9167H9.16667C8.90694 11.9167 8.68939 11.8287 8.514 11.6527C8.33861 11.4767 8.25061 11.2591 8.25 11C8.24939 10.7409 8.33739 10.5233 8.514 10.3473C8.69061 10.1713 8.90817 10.0833 9.16667 10.0833H15.7437L14.025 8.36458C13.8569 8.19653 13.7729 7.99028 13.7729 7.74583C13.7729 7.50139 13.8569 7.2875 14.025 7.10417C14.1931 6.92083 14.4069 6.82519 14.6667 6.81725C14.9264 6.80931 15.1479 6.89731 15.3313 7.08125L18.6083 10.3583C18.7917 10.5417 18.8833 10.7556 18.8833 11C18.8833 11.2444 18.7917 11.4583 18.6083 11.6417L15.3313 14.9187C15.1479 15.1021 14.9304 15.1901 14.6786 15.1827C14.4268 15.1754 14.2089 15.0798 14.025 14.8958C13.8569 14.7125 13.7769 14.4949 13.7848 14.2432C13.7928 13.9914 13.8805 13.7812 14.0479 13.6125L15.7437 11.9167Z" fill="#565656"/>
</svg>
