<svg width="33" height="33" viewBox="0 0 33 33" fill="none" xmlns="http://www.w3.org/2000/svg">
<path d="M5.5 26.125V13.75C5.5 13.3146 5.59762 12.9021 5.79287 12.5125C5.98812 12.1229 6.25717 11.8021 6.6 11.55L14.85 5.3625C15.3313 4.99583 15.8813 4.8125 16.5 4.8125C17.1187 4.8125 17.6687 4.99583 18.15 5.3625L26.4 11.55C26.7438 11.8021 27.0133 12.1229 27.2085 12.5125C27.4037 12.9021 27.5009 13.3146 27.5 13.75V26.125C27.5 26.8813 27.2305 27.5289 26.6915 28.0679C26.1525 28.6069 25.5053 28.8759 24.75 28.875H20.625C20.2354 28.875 19.9091 28.743 19.646 28.479C19.3829 28.215 19.2509 27.8887 19.25 27.5V20.625C19.25 20.2354 19.118 19.9091 18.854 19.646C18.59 19.3829 18.2637 19.2509 17.875 19.25H15.125C14.7354 19.25 14.4091 19.382 14.146 19.646C13.8829 19.91 13.7509 20.2363 13.75 20.625V27.5C13.75 27.8896 13.618 28.2164 13.354 28.4804C13.09 28.7444 12.7637 28.8759 12.375 28.875H8.25C7.49375 28.875 6.84658 28.606 6.3085 28.0679C5.77042 27.5298 5.50092 26.8822 5.5 26.125Z" fill="#92BDD5"/>
</svg>
